# xmcd
#
# Track frame offsets: 
#        187
#        22120
#        36872
#        55905
#        77765
#        102757
#        124030
#        150930
#        171677
#        195730
#        220047
#        246607
#
# Disc length: 3583 seconds
#
# Revision: 2
# Processed by: cddbd v1.5.2PL0 Copyright (c) Steve Scherf et al.
# Submitted via: ExactAudioCopyFreeDBPlugin 1.0
#
DISCID=a40dfd0c
DTITLE=Paul Rodgers - Now
DYEAR=1997
DGENRE=Rock
TTITLE0=Soul Of Love
TTITLE1=Overloaded
TTITLE2=Heart Of Fire
TTITLE3=Saving Grace
TTITLE4=All I Want Is You
TTITLE5=Chasing Shadows
TTITLE6=Love Is All I Need
TTITLE7=Ride My Love
TTITLE8=Nights Like This
TTITLE9=Shadow Of The Sun
TTITLE10=I Lost It All
TTITLE11=Holding Back The Storm
EXTD=YEAR: 1997
EXTT0=
EXTT1=
EXTT2=
EXTT3=
EXTT4=
EXTT5=
EXTT6=
EXTT7=
EXTT8=
EXTT9=
EXTT10=
EXTT11=
PLAYORDER=
